<mxfile host="app.diagrams.net" modified="2023-01-25T19:00:02.825Z" agent="5.0 (Windows NT 10.0; Win64; x64) AppleWebKit/537.36 (KHTML, like Gecko) Chrome/109.0.0.0 Safari/537.36" etag="pqDKDtUuwoNuEvYQDrDW" version="20.8.8" type="github">
  <diagram id="bgbJPK2U2Sxj6t8t7DNl" name="Page-1">
    <mxGraphModel dx="794" dy="430" grid="1" gridSize="10" guides="1" tooltips="1" connect="1" arrows="1" fold="1" page="1" pageScale="1" pageWidth="850" pageHeight="1100" math="0" shadow="0">
      <root>
        <mxCell id="0" />
        <mxCell id="1" parent="0" />
        <mxCell id="XWycmueIXHpv-xGtSctl-1" value="" style="rounded=0;whiteSpace=wrap;html=1;" vertex="1" parent="1">
          <mxGeometry x="50" y="280" width="360" height="360" as="geometry" />
        </mxCell>
        <mxCell id="XWycmueIXHpv-xGtSctl-2" value="" style="verticalLabelPosition=bottom;verticalAlign=top;html=1;shape=mxgraph.basic.rect;fillColor2=none;strokeWidth=1;size=20;indent=5;" vertex="1" parent="1">
          <mxGeometry x="450" y="280" width="370" height="360" as="geometry" />
        </mxCell>
        <mxCell id="XWycmueIXHpv-xGtSctl-3" value="&lt;b&gt;&lt;font style=&quot;font-size: 18px;&quot;&gt;BTP&lt;/font&gt;&lt;/b&gt;" style="text;html=1;strokeColor=none;fillColor=none;align=center;verticalAlign=middle;whiteSpace=wrap;rounded=0;labelBorderColor=#FFFFFF;labelBackgroundColor=default;fontColor=#292ec7;" vertex="1" parent="1">
          <mxGeometry x="718" y="590" width="80" height="30" as="geometry" />
        </mxCell>
        <mxCell id="XWycmueIXHpv-xGtSctl-4" value="&lt;font style=&quot;font-size: 10px;&quot;&gt;API- Update Asset in S4&lt;/font&gt;" style="rounded=1;whiteSpace=wrap;html=1;strokeColor=#1950d2;" vertex="1" parent="1">
          <mxGeometry x="216" y="530" width="80" height="30" as="geometry" />
        </mxCell>
        <mxCell id="XWycmueIXHpv-xGtSctl-5" value="" style="endArrow=classic;html=1;rounded=0;fontSize=10;exitX=0.5;exitY=0;exitDx=0;exitDy=0;" edge="1" parent="1" source="XWycmueIXHpv-xGtSctl-18">
          <mxGeometry width="50" height="50" relative="1" as="geometry">
            <mxPoint x="160" y="470" as="sourcePoint" />
            <mxPoint x="217.57" y="420" as="targetPoint" />
            <Array as="points">
              <mxPoint x="134" y="420" />
            </Array>
          </mxGeometry>
        </mxCell>
        <mxCell id="XWycmueIXHpv-xGtSctl-6" value="" style="endArrow=classic;html=1;rounded=0;fontSize=10;exitX=0;exitY=0.5;exitDx=0;exitDy=0;entryX=0.5;entryY=1;entryDx=0;entryDy=0;" edge="1" parent="1" source="XWycmueIXHpv-xGtSctl-4" target="XWycmueIXHpv-xGtSctl-18">
          <mxGeometry width="50" height="50" relative="1" as="geometry">
            <mxPoint x="135.99999999999994" y="550" as="sourcePoint" />
            <mxPoint x="130" y="510" as="targetPoint" />
            <Array as="points">
              <mxPoint x="134" y="545" />
            </Array>
          </mxGeometry>
        </mxCell>
        <mxCell id="XWycmueIXHpv-xGtSctl-7" value="&lt;font style=&quot;font-size: 10px;&quot;&gt;API to &lt;br&gt;Read Assets&amp;nbsp;&lt;/font&gt;" style="rounded=1;whiteSpace=wrap;html=1;strokeColor=#161cc5;" vertex="1" parent="1">
          <mxGeometry x="220" y="400" width="80" height="30" as="geometry" />
        </mxCell>
        <mxCell id="XWycmueIXHpv-xGtSctl-8" value="&lt;font style=&quot;font-size: 18px;&quot; color=&quot;#2846bd&quot;&gt;&lt;b&gt;S/4HANA (D40)&lt;/b&gt;&lt;/font&gt;" style="text;html=1;strokeColor=none;fillColor=none;align=center;verticalAlign=middle;whiteSpace=wrap;rounded=0;" vertex="1" parent="1">
          <mxGeometry x="320" y="590" width="60" height="30" as="geometry" />
        </mxCell>
        <mxCell id="XWycmueIXHpv-xGtSctl-44" value="" style="edgeStyle=orthogonalEdgeStyle;rounded=0;orthogonalLoop=1;jettySize=auto;html=1;" edge="1" parent="1" source="XWycmueIXHpv-xGtSctl-9" target="XWycmueIXHpv-xGtSctl-20">
          <mxGeometry relative="1" as="geometry" />
        </mxCell>
        <mxCell id="XWycmueIXHpv-xGtSctl-9" value="Approver" style="shape=umlActor;verticalLabelPosition=bottom;verticalAlign=top;html=1;outlineConnect=0;labelBackgroundColor=default;labelBorderColor=#F5F5F5;fontSize=10;fontColor=default;" vertex="1" parent="1">
          <mxGeometry x="335" y="160" width="30" height="60" as="geometry" />
        </mxCell>
        <mxCell id="XWycmueIXHpv-xGtSctl-10" value="Launchpad" style="shape=image;verticalLabelPosition=bottom;verticalAlign=top;imageAspect=0;aspect=fixed;image=data:image/svg+xml,PHN2ZyB4bWxucz0iaHR0cDovL3d3dy53My5vcmcvMjAwMC9zdmciIGlkPSJzY3AtbGF1bmNocGFkIiB2aWV3Qm94PSIzLjk5ODUxOTQyMDYyMzc3OTMgNi45OTc3Nzc0NjIwMDU2MTUgNDguMDAzNzA0MDcxMDQ0OTIgNDIuMDAyODE5MDYxMjc5MyIgd2lkdGg9IjQ4LjAwMzcwNDA3MTA0NDkyIiBoZWlnaHQ9IjQyLjAwMjgxOTA2MTI3OTMiPjxkZWZzPjxzdHlsZT4uY2xzLTF7ZmlsbDojMDAzYjc0O30uY2xzLTJ7ZmlsbDojMDA2ZGQ3O308L3N0eWxlPjwvZGVmcz48cGF0aCBjbGFzcz0iY2xzLTEiIGQ9Ik00OSw3YTIuODg5LDIuODg5LDAsMCwxLDMsM1Y0MGEyLjk1OSwyLjk1OSwwLDAsMS0uODQ0LDIuMTA5QTIuODM3LDIuODM3LDAsMCwxLDQ5LDQzSDdhMi44NzEsMi44NzEsMCwwLDEtMi4xMDktLjg5MUEyLjg3NiwyLjg3NiwwLDAsMSw0LDQwVjEwYTIuODM0LDIuODM0LDAsMCwxLC44OTEtMi4xNTZBMi45NTQsMi45NTQsMCwwLDEsNyw3Wm0wLDNIN1Y0MEg0OVpNMzguNSw0NkExLjMyNywxLjMyNywwLDAsMSw0MCw0Ny41YTEuNTA5LDEuNTA5LDAsMCwxLS40MjIsMS4wMzFBMS4zODEsMS4zODEsMCwwLDEsMzguNSw0OWgtMjFBMS42MTQsMS42MTQsMCwwLDEsMTYsNDcuNWExLjM4MSwxLjM4MSwwLDAsMSwuNDY5LTEuMDc4QTEuNTA1LDEuNTA1LDAsMCwxLDE3LjUsNDZaIi8+PHJlY3QgY2xhc3M9ImNscy0yIiB4PSIxMCIgeT0iMTMiIHdpZHRoPSIxNi41MTUiIGhlaWdodD0iMTUiIHJ4PSIxLjI1Ii8+PHJlY3QgY2xhc3M9ImNscy0yIiB4PSIyOS41IiB5PSIxMyIgd2lkdGg9IjE2LjUiIGhlaWdodD0iNiIgcng9IjEuMjUiLz48cmVjdCBjbGFzcz0iY2xzLTIiIHg9IjEwIiB5PSIzMSIgd2lkdGg9IjYuNzMiIGhlaWdodD0iNiIgcng9IjAuNSIvPjxyZWN0IGNsYXNzPSJjbHMtMiIgeD0iMTkuNzY1IiB5PSIzMSIgd2lkdGg9IjYuNzM1IiBoZWlnaHQ9IjYiIHJ4PSIwLjUiLz48cmVjdCBjbGFzcz0iY2xzLTIiIHg9IjI5LjUiIHk9IjMxIiB3aWR0aD0iNi43MzUiIGhlaWdodD0iNiIgcng9IjAuNSIvPjxyZWN0IGNsYXNzPSJjbHMtMiIgeD0iMzkuMjY1IiB5PSIzMSIgd2lkdGg9IjYuNzM1IiBoZWlnaHQ9IjYiIHJ4PSIwLjUiLz48cmVjdCBjbGFzcz0iY2xzLTIiIHg9IjI5LjUiIHk9IjIyIiB3aWR0aD0iNi43MzUiIGhlaWdodD0iNiIgcng9IjAuNSIvPjxyZWN0IGNsYXNzPSJjbHMtMiIgeD0iMzkuMjY1IiB5PSIyMiIgd2lkdGg9IjYuNzM1IiBoZWlnaHQ9IjYiIHJ4PSIwLjUiLz48L3N2Zz4=" vertex="1" parent="1">
          <mxGeometry x="232" y="313" width="48" height="42" as="geometry" />
        </mxCell>
        <mxCell id="XWycmueIXHpv-xGtSctl-11" value="Custom CAP Application" style="rounded=0;whiteSpace=wrap;html=1;strokeWidth=2;strokeColor=#1c3eca;" vertex="1" parent="1">
          <mxGeometry x="580" y="455" width="120" height="60" as="geometry" />
        </mxCell>
        <mxCell id="XWycmueIXHpv-xGtSctl-12" value="" style="shape=image;verticalLabelPosition=bottom;verticalAlign=top;imageAspect=0;aspect=fixed;image=data:image/svg+xml,PHN2ZyB4bWxucz0iaHR0cDovL3d3dy53My5vcmcvMjAwMC9zdmciIGlkPSJjdXN0b20tZG9tYWluIiB2aWV3Qm94PSI0LjAwMDAwMTkwNzM0ODYzMyAzLjk5OTk5OTA0NjMyNTY4MzYgNDggNDcuOTk5OTk2MTg1MzAyNzM0IiB3aWR0aD0iNDgiIGhlaWdodD0iNDcuOTk5OTk2MTg1MzAyNzM0Ij48ZGVmcz48c3R5bGU+LmNscy0xe2ZpbGw6IzA3NGQ5Mjt9LmNscy0ye2ZpbGw6IzA1M2I3MDt9LmNscy0ze2ZpbGw6IzBhNmVkMTt9PC9zdHlsZT48L2RlZnM+PHRpdGxlPmN1c3RvbS1kb21haW48L3RpdGxlPjxwYXRoIGNsYXNzPSJjbHMtMSIgZD0iTTI4LDZBMjIsMjIsMCwxLDEsNiwyOCwyMi4wMjUsMjIuMDI1LDAsMCwxLDI4LDZtMC0yQTI0LDI0LDAsMSwwLDUyLDI4LDI0LDI0LDAsMCwwLDI4LDRaIi8+PHJlY3QgY2xhc3M9ImNscy0yIiB4PSIzMS4yNSIgeT0iMTYuNjI1IiB3aWR0aD0iNi41IiBoZWlnaHQ9IjEuNjI1IiByeD0iMC40MDYiLz48cmVjdCBjbGFzcz0iY2xzLTIiIHg9IjIzLjEyNSIgeT0iMTYuNjI1IiB3aWR0aD0iNi41IiBoZWlnaHQ9IjEuNjI1IiByeD0iMC40MDYiLz48cGF0aCBjbGFzcz0iY2xzLTIiIGQ9Ik0xNSwzNy43NDh2MGExLjU1OSwxLjU1OSwwLDAsMCwuMTI4LjYyNywxLjYzOSwxLjYzOSwwLDAsMCwuODcuODcsMS41NTUsMS41NTUsMCwwLDAsLjYyNy4xMjhIMzkuMzczQTEuNjMyLDEuNjMyLDAsMCwwLDQxLDM3Ljc0OFYyMS41YTEuNjMyLDEuNjMyLDAsMCwwLTEuNjI3LTEuNjI3SDIxLjVWMTcuMDMxYS4zNTkuMzU5LDAsMCwwLS40MDYtLjQwNkgxNS40MDZhLjM1OS4zNTksMCwwLDAtLjQwNi40MDZaTTM5LjM3MywyMS41bDAsMCwwLDE2LjI0OC0yMi43NDgsMCwwLTE2LjI0OFoiLz48cGF0aCBjbGFzcz0iY2xzLTMiIGQ9Ik0zNC4wNzUsMjcuMzEyYTYuOTI0LDYuOTI0LDAsMCwwLTEuMTQyLTEuOTM1LDYuNDQ3LDYuNDQ3LDAsMCwwLTEuNzM5LTEuNDI0LDYuNTE3LDYuNTE3LDAsMCwwLTIuMTYxLS43NTRsMCwwYy0uMTcxLS4wMjUtLjMzOC0uMDQyLS41LS4wNTZhOC40MzUsOC40MzUsMCwwLDAtMS4wMzEsMGMtLjE1OS4wMTQtLjMyNi4wMzEtLjUuMDU4YTYuMyw2LjMsMCwwLDAtMi4xOC43NTYsNi43NzQsNi43NzQsMCwwLDAtMS43MzQsMS40Miw2LjYxNiw2LjYxNiwwLDAsMC0xLjE2MywxLjkzOSw2LjM1Miw2LjM1MiwwLDAsMC0uNDI1LDIuMzA5LDYuMjE1LDYuMjE1LDAsMCwwLC41MTgsMi41MTVBNi42MjYsNi42MjYsMCwwLDAsMjUuNDg1LDM1LjYsNi4yNDEsNi4yNDEsMCwwLDAsMjgsMzYuMTIzYTYuMzA4LDYuMzA4LDAsMCwwLDIuNTUtLjUxOCw2LjY5Miw2LjY5MiwwLDAsMCwyLjA2Ni0xLjRBNi40NSw2LjQ1LDAsMCwwLDM0LjUsMjkuNjIzLDYuMzcsNi4zNywwLDAsMCwzNC4wNzUsMjcuMzEyWm0tMS44LS41NDFIMzAuNDI1YTcuMTg4LDcuMTg4LDAsMCwwLTEuMTQxLTIuMUE0Ljg0MSw0Ljg0MSwwLDAsMSwzMi4yNzksMjYuNzcxWk0zMC4xLDI5LjQ4MWE2LjUwNyw2LjUwNywwLDAsMS0uMDcxLjk2Miw3LjksNy45LDAsMCwxLS4xNzkuODA3SDI2LjE4MUE3LjksNy45LDAsMCwxLDI2LDMwLjQ0M2E2LjI0Nyw2LjI0NywwLDAsMS0uMDcxLS45NjJBNi42MDUsNi42MDUsMCwwLDEsMjYuMTEsMjhoMy44MTZBNi42NjQsNi42NjQsMCwwLDEsMzAuMSwyOS40ODFaTTI4LDI0LjU2YTQuMDExLDQuMDExLDAsMCwxLC45MDkuOTI3LDYuMDUzLDYuMDUzLDAsMCwxLC43LDEuMjg0SDI2LjQzMUE0LjczMSw0LjczMSwwLDAsMSwyOCwyNC41NlptLTEuMjQ4LjEwN2E3LjExOSw3LjExOSwwLDAsMC0xLjE0MSwyLjFIMjMuNzU3QTQuODMzLDQuODMzLDAsMCwxLDI2Ljc1MiwyNC42NjdaTTIzLjE4NiwzMS4yNWE0LjY2Niw0LjY2NiwwLDAsMS0uMjMyLS43MzUsNC41MSw0LjUxLDAsMCwxLDAtMS43ODNBNC42NjMsNC42NjMsMCwwLDEsMjMuMTg2LDI4aDIuMTRhNi41NTEsNi41NTEsMCwwLDAtLjE3OSwxLjQ4MSw2Ljk2Nyw2Ljk2NywwLDAsMCwuMjE0LDEuNzY5Wm0yLDIuNjM0YTUuNTIxLDUuNTIxLDAsMCwxLTEuNDI2LTEuNDA4aDEuOTI1YTYuNyw2LjcsMCwwLDAsMS4zOTEsMi4xNzVBNC42ODYsNC42ODYsMCwwLDEsMjUuMTgzLDMzLjg4NFpNMjgsMzQuNDM3YTQuMDQsNC4wNCwwLDAsMS0uOC0uODIsNS43ODQsNS43ODQsMCwwLDEtLjY2LTEuMTQxSDI5LjVBNC4zNzgsNC4zNzgsMCwwLDEsMjgsMzQuNDM3Wm0yLjg1My0uNTUzYTQuNyw0LjcsMCwwLDEtMS44OS43NjcsNi43Myw2LjczLDAsMCwwLDEuMzktMi4xNzVoMS45MjZBNS41NTIsNS41NTIsMCwwLDEsMzAuODUzLDMzLjg4NFptMi0yLjYzNEgzMC42NzRhNC40Myw0LjQzLDAsMCwwLC4xNDMtLjgwN2MuMDIzLS4zMDguMDM2LS42MjkuMDM2LS45NjJBNi44MSw2LjgxLDAsMCwwLDMwLjcxLDI4aDIuMTRhNC43NzUsNC43NzUsMCwwLDEsMCwzLjI1WiIvPjwvc3ZnPg==" vertex="1" parent="1">
          <mxGeometry x="560" y="430" width="48" height="48" as="geometry" />
        </mxCell>
        <mxCell id="XWycmueIXHpv-xGtSctl-13" value="BTP Workflow" style="shape=image;verticalLabelPosition=bottom;verticalAlign=top;imageAspect=0;aspect=fixed;image=data:image/svg+xml,PHN2ZyB4bWxucz0iaHR0cDovL3d3dy53My5vcmcvMjAwMC9zdmciIGlkPSJ3b3JrZmxvdy1zZXJ2aWNlIiB2aWV3Qm94PSI0IDQgNDggNDgiIHdpZHRoPSI0OCIgaGVpZ2h0PSI0OCI+PGRlZnM+PHN0eWxlPi5jbHMtMXtmaWxsOiMwYTZlZDE7fS5jbHMtMntmaWxsOiMwNTNiNzA7fTwvc3R5bGU+PC9kZWZzPjx0aXRsZT53b3JrZmxvdy1zZXJ2aWNlPC90aXRsZT48cmVjdCBjbGFzcz0iY2xzLTEiIHg9IjM0IiB5PSI0IiB3aWR0aD0iMTgiIGhlaWdodD0iMTIiIHJ4PSIyLjY4NyIvPjxyZWN0IGNsYXNzPSJjbHMtMSIgeD0iMzQiIHk9IjQwIiB3aWR0aD0iMTgiIGhlaWdodD0iMTIiIHJ4PSIyLjY4NyIvPjxyZWN0IGNsYXNzPSJjbHMtMSIgeD0iNCIgeT0iMjIiIHdpZHRoPSIxOCIgaGVpZ2h0PSIxMiIgcng9IjIuNjg3Ii8+PHBhdGggY2xhc3M9ImNscy0yIiBkPSJNMzAuOTMyLDMyLjczMUExLjIyMSwxLjIyMSwwLDAsMCwzMS4xLDMyLjZsMy4xNzgtMy4xNzlhMiwyLDAsMCwwLDAtMi44MzFMMzEuMSwyMy40YTEuMjU5LDEuMjU5LDAsMCwwLS4xNjMtLjEzNFYxMkgzNHYtMi41TDI4LjQzMiw5LjVWMjMuMjY3YTEuMiwxLjIsMCwwLDAtLjE2Ny4xMzhsLTMuMTc5LDMuMTc5YTEuMTcxLDEuMTcxLDAsMCwwLS4xMzcuMTY2SDIydjIuNWgyLjk1YTEuMSwxLjEsMCwwLDAsLjEzNi4xNjRMMjguMjY3LDMyLjZhMS4yMTksMS4yMTksMCwwLDAsLjE2NS4xMzVWNDYuNjI1SDM0di0yLjVsLTMuMDY4LDBaIi8+PC9zdmc+;strokeColor=#1950d2;strokeWidth=2;" vertex="1" parent="1">
          <mxGeometry x="540" y="307" width="48" height="48" as="geometry" />
        </mxCell>
        <mxCell id="XWycmueIXHpv-xGtSctl-14" value="Connectivity Service" style="shape=image;verticalLabelPosition=bottom;verticalAlign=top;imageAspect=0;aspect=fixed;image=data:image/svg+xml,PHN2ZyB4bWxucz0iaHR0cDovL3d3dy53My5vcmcvMjAwMC9zdmciIGlkPSJzYXAtaGFuYS1jbG91ZC1jb25uZWN0b3IiIHZpZXdCb3g9IjQuMDAwMDAxOTA3MzQ4NjMzIDMuOTk5OTk5MDQ2MzI1NjgzNiA0OCA0Ny45OTk5OTYxODUzMDI3MzQiIHdpZHRoPSI0OCIgaGVpZ2h0PSI0Ny45OTk5OTYxODUzMDI3MzQiPjxkZWZzPjxzdHlsZT4uY2xzLTF7ZmlsbDojMGE2ZWQxO30uY2xzLTJ7ZmlsbDojMDUzYjcwO30uY2xzLTN7ZmlsbDojMDc0ZDkyO308L3N0eWxlPjwvZGVmcz48dGl0bGU+c2FwLWhhbmEtY2xvdWQtY29ubmVjdG9yX2NpcmNsZTwvdGl0bGU+PHBhdGggY2xhc3M9ImNscy0xIiBkPSJNMzQuMzEyLDM5LjM3NUgyOS40MzhhLjgxMy44MTMsMCwxLDAsMCwxLjYyNWg0Ljg3NGEuODEzLjgxMywwLDEsMCwwLTEuNjI1WiIvPjxwYXRoIGNsYXNzPSJjbHMtMSIgZD0iTTM4LjM3LDI2LjM3NUgyNS4zOGExLjYzLDEuNjMsMCwwLDAtMS42MywxLjYzVjM2LjEyYTEuNjMsMS42MywwLDAsMCwxLjYzLDEuNjNIMzguMzdBMS42MywxLjYzLDAsMCwwLDQwLDM2LjEyVjI4LjAwNUExLjYzLDEuNjMsMCwwLDAsMzguMzcsMjYuMzc1Wm0wLDkuNzVMMjUuMzc1LDM2LjEybDAtOC4xMkgzOC4zN2wuMDA1LDBaIi8+PHBhdGggY2xhc3M9ImNscy0yIiBkPSJNMjIuMTg0LDE2LjYyNmEzLjUsMy41LDAsMCwxLDMuMTc3LDIuMTg1bC43MDcsMS43ODFMMjcuNzEsMTkuNmEyLjExNCwyLjExNCwwLDAsMSwxLjEwNi0uMzIsMi4xNTksMi4xNTksMCwwLDEsMi4xMiwxLjc1OWwuMTU2LjgyOS43NjcuMzQ5YTIuOSwyLjksMCwwLDEsMS42MjUsMi41M2gxLjY0MWE0LjUyNiw0LjUyNiwwLDAsMC0yLjU5Mi00LjAwOCwzLjc2LDMuNzYsMCwwLDAtNS42NjItMi41MzFBNS4xMTcsNS4xMTcsMCwwLDAsMjIuMTU1LDE1Yy01LjYyMywwLTUuMDE0LDUuNzUzLTUuMDE0LDUuNzUzYTQuNTQzLDQuNTQzLDAsMCwwLDEuNDE1LDguODY0aDMuNTY5VjI3Ljk5MkgxOC41NTZhMi45MTgsMi45MTgsMCwwLDEtLjkwOC01LjY5NWwxLjI1LS40MTEtLjE0Mi0xLjMwOGE0LjM5Miw0LjM5MiwwLDAsMSwuODExLTIuODYyQTMuNTIyLDMuNTIyLDAsMCwxLDIyLjE4NCwxNi42MjZaIi8+PHBhdGggY2xhc3M9ImNscy0zIiBkPSJNMjgsNkEyMiwyMiwwLDEsMSw2LDI4LDIyLjAyNSwyMi4wMjUsMCwwLDEsMjgsNm0wLTJBMjQsMjQsMCwxLDAsNTIsMjgsMjQsMjQsMCwwLDAsMjgsNFoiLz48L3N2Zz4=;strokeColor=#1950d2;strokeWidth=2;" vertex="1" parent="1">
          <mxGeometry x="482" y="560" width="48" height="48" as="geometry" />
        </mxCell>
        <mxCell id="XWycmueIXHpv-xGtSctl-15" value="" style="endArrow=classic;html=1;rounded=0;exitX=0;exitY=0.5;exitDx=0;exitDy=0;entryX=0.535;entryY=1.007;entryDx=0;entryDy=0;entryPerimeter=0;" edge="1" parent="1">
          <mxGeometry width="50" height="50" relative="1" as="geometry">
            <mxPoint x="413.45" y="714.51" as="sourcePoint" />
            <mxPoint x="270" y="640.0049999999999" as="targetPoint" />
            <Array as="points">
              <mxPoint x="270.45000000000005" y="715.01" />
            </Array>
          </mxGeometry>
        </mxCell>
        <mxCell id="XWycmueIXHpv-xGtSctl-16" value="" style="endArrow=classic;html=1;rounded=0;exitX=1;exitY=0.5;exitDx=0;exitDy=0;entryX=0.483;entryY=1.016;entryDx=0;entryDy=0;entryPerimeter=0;" edge="1" parent="1">
          <mxGeometry width="50" height="50" relative="1" as="geometry">
            <mxPoint x="461.45000000000005" y="714.51" as="sourcePoint" />
            <mxPoint x="603.5199999999999" y="642.6500000000001" as="targetPoint" />
            <Array as="points">
              <mxPoint x="603.4499999999999" y="715.01" />
            </Array>
          </mxGeometry>
        </mxCell>
        <mxCell id="XWycmueIXHpv-xGtSctl-17" value="SE Corporate Identity Provider ??" style="shape=image;verticalLabelPosition=bottom;verticalAlign=top;imageAspect=0;aspect=fixed;image=data:image/svg+xml,PHN2ZyB4bWxucz0iaHR0cDovL3d3dy53My5vcmcvMjAwMC9zdmciIGlkPSJwbGF0Zm9ybWlkZW50aXR5IiB2aWV3Qm94PSI0LjAwMDAwMTkwNzM0ODYzMyA0LjAxNzk5OTY0OTA0Nzg1MiA0OCA0OCIgd2lkdGg9IjQ4IiBoZWlnaHQ9IjQ4Ij48ZGVmcz48c3R5bGU+LmNscy0xe2ZpbGw6IzA3NGQ5Mjt9LmNscy0ye2ZpbGw6IzA1M2I3MDt9LmNscy0ze2ZpbGw6IzBhNmVkMTt9PC9zdHlsZT48L2RlZnM+PHRpdGxlPnBsYXRmb3JtaWRlbnRpdHlfY2lyY2xlPC90aXRsZT48cGF0aCBjbGFzcz0iY2xzLTEiIGQ9Ik0yOCw2LjAxOGEyMiwyMiwwLDEsMS0yMiwyMiwyMi4wMjUsMjIuMDI1LDAsMCwxLDIyLTIybTAtMmEyNCwyNCwwLDEsMCwyNCwyNCwyNCwyNCwwLDAsMC0yNC0yNFoiLz48cG9seWdvbiBjbGFzcz0iY2xzLTIiIHBvaW50cz0iMzkuMzc1IDE1LjAxOCAzMi44NzUgMTUuMDE4IDMyLjg3NSAxNi42NDMgMzkuMzc1IDE2LjY0MyAzOS4zNzUgMzQuNTE4IDQxIDM0LjUxOCA0MSAxNi42NDMgNDEgMTUuMDE4IDM5LjM3NSAxNS4wMTgiLz48cG9seWdvbiBjbGFzcz0iY2xzLTIiIHBvaW50cz0iMjkuNjI1IDE4LjI2OCAyOS42MjUgMTkuODkzIDM2LjEyNSAxOS44OTMgMzYuMTI1IDM3Ljc2OCAzNy43NSAzNy43NjggMzcuNzUgMTkuODkzIDM3Ljc1IDE4LjI2OCAzNi4xMjUgMTguMjY4IDI5LjYyNSAxOC4yNjgiLz48cG9seWdvbiBjbGFzcz0iY2xzLTIiIHBvaW50cz0iMjggMjEuNTE4IDI4IDIzLjE0MyAzMi44NzUgMjMuMTQzIDMyLjg3NSAzOS4zOTMgMzEuMjUgMzkuMzkzIDMxLjI1IDQxLjAxOCAzMi44NzUgNDEuMDE4IDM0LjUgNDEuMDE4IDM0LjUgMzkuMzkzIDM0LjUgMjMuMTQzIDM0LjUgMjEuNTE4IDMyLjg3NSAyMS41MTggMjggMjEuNTE4Ii8+PHBhdGggY2xhc3M9ImNscy0zIiBkPSJNMjkuMjQ0LDM0LjI1OGE0Ljg2NCw0Ljg2NCwwLDAsMC0yLjYwOS0yLjYwOSw0Ljc4Miw0Ljc4MiwwLDAsMC0xLjg4NS0uMzgxSDE5Ljg3NWE0LjczNiw0LjczNiwwLDAsMC0xLjkuMzgxQTQuOTUsNC45NSwwLDAsMCwxNi40MjgsMzIuN2E0Ljg4Niw0Ljg4NiwwLDAsMC0xLjA0NywxLjU2MUE0Ljc2NCw0Ljc2NCwwLDAsMCwxNSwzNi4xNDN2NC44NzVIMjkuNjI1VjM2LjE0M0E0Ljc2NCw0Ljc2NCwwLDAsMCwyOS4yNDQsMzQuMjU4Wk0yOCwzOS4zOTNIMTYuNjI1di0zLjI1YTMuMTI4LDMuMTI4LDAsMCwxLC4yNTEtMS4yNDksMy4yNDYsMy4yNDYsMCwwLDEsLjctMS4wNDgsMy4zMTMsMy4zMTMsMCwwLDEsMS4wNDEtLjcwNiwzLjA5MiwzLjA5MiwwLDAsMSwxLjI1Ny0uMjQ3SDI0Ljc1QTMuMTM3LDMuMTM3LDAsMCwxLDI2LDMzLjE0NGEzLjIzNywzLjIzNywwLDAsMSwxLjc1LDEuNzQ5QTMuMTI3LDMuMTI3LDAsMCwxLDI4LDM2LjE0M1oiLz48cGF0aCBjbGFzcz0iY2xzLTMiIGQ9Ik0yNS43NTksMjkuODRBNC45NTcsNC45NTcsMCwwLDAsMjYuODA3LDI4LjNhNC45LDQuOSwwLDAsMCwwLTMuNzlBNC44NzMsNC44NzMsMCwwLDAsMjQuMiwyMS45YTQuOSw0LjksMCwwLDAtMy43OSwwLDQuOTU3LDQuOTU3LDAsMCwwLTEuNTQyLDEuMDQ4LDQuODg4LDQuODg4LDAsMCwwLTEuMDQ4LDEuNTYxLDQuOTE1LDQuOTE1LDAsMCwwLDAsMy43OSw0Ljk3Niw0Ljk3NiwwLDAsMCwyLjU5LDIuNTksNC45MTUsNC45MTUsMCwwLDAsMy43OSwwQTQuODg4LDQuODg4LDAsMCwwLDI1Ljc1OSwyOS44NFptLTMuNDQ3LS4yYTMuMDkyLDMuMDkyLDAsMCwxLTEuMjU3LS4yNDYsMy4zNDYsMy4zNDYsMCwwLDEtMS43NDctMS43NDgsMy4wOTQsMy4wOTQsMCwwLDEtLjI0Ni0xLjI1NiwzLjEyOSwzLjEyOSwwLDAsMSwuMjUyLTEuMjQ5LDMuMjQ2LDMuMjQ2LDAsMCwxLC43LTEuMDQ4LDMuMywzLjMsMCwwLDEsMS4wNC0uNzA2LDMuMDkyLDMuMDkyLDAsMCwxLDEuMjU3LS4yNDcsMy4xNDYsMy4xNDYsMCwwLDEsMS4yNDkuMjUxLDMuMjQ2LDMuMjQ2LDAsMCwxLDEuNzUsMS43NDksMy4xNDQsMy4xNDQsMCwwLDEsLjI1MSwxLjI1LDMuMDg5LDMuMDg5LDAsMCwxLS4yNDYsMS4yNTcsMy4zLDMuMywwLDAsMS0uNzA2LDEuMDQxLDMuMjQsMy4yNCwwLDAsMS0xLjA0OS43QTMuMTI1LDMuMTI1LDAsMCwxLDIyLjMxMiwyOS42NDNaIi8+PC9zdmc+;strokeColor=#1950d2;strokeWidth=2;" vertex="1" parent="1">
          <mxGeometry x="415.45" y="688.01" width="48" height="48" as="geometry" />
        </mxCell>
        <mxCell id="XWycmueIXHpv-xGtSctl-18" value="" style="shape=image;verticalLabelPosition=bottom;verticalAlign=top;imageAspect=0;aspect=fixed;image=data:image/svg+xml,PHN2ZyB4bWxucz0iaHR0cDovL3d3dy53My5vcmcvMjAwMC9zdmciIGlkPSJtb25nb0RCIiB2aWV3Qm94PSI0LjAwMDAwMTkwNzM0ODYzMyAzLjk5OTk5OTA0NjMyNTY4MzYgNDggNDcuOTk5OTk2MTg1MzAyNzM0IiB3aWR0aD0iNDgiIGhlaWdodD0iNDcuOTk5OTk2MTg1MzAyNzM0Ij48ZGVmcz48c3R5bGU+LmNscy0xe2ZpbGw6IzA3NGQ5Mjt9LmNscy0ye2ZpbGw6IzA1M2I3MDt9LmNscy0ze2ZpbGw6IzBhNmVkMTt9PC9zdHlsZT48L2RlZnM+PHRpdGxlPm1vbmdvREJfY2lyY2xlPC90aXRsZT48cGF0aCBjbGFzcz0iY2xzLTEiIGQ9Ik0yOCw2QTIyLDIyLDAsMSwxLDYsMjgsMjIuMDI1LDIyLjAyNSwwLDAsMSwyOCw2bTAtMkEyNCwyNCwwLDEsMCw1MiwyOCwyNCwyNCwwLDAsMCwyOCw0WiIvPjxwYXRoIGNsYXNzPSJjbHMtMiIgZD0iTTM3LjY4NCwxNi44YTYuMDMzLDYuMDMzLDAsMCwwLTIuMTc2LTEuNTE3QTE5LjIxNCwxOS4yMTQsMCwwLDAsMjgsMTRhMTkuMjE0LDE5LjIxNCwwLDAsMC03LjUwOCwxLjI4M0E2LjAzMyw2LjAzMywwLDAsMCwxOC4zMTYsMTYuOGEzLjAzOCwzLjAzOCwwLDAsMC0uODE2LDIuMDQyVjM3LjFhMi45MzYsMi45MzYsMCwwLDAsLjgxNiwyLjA0Miw2LjAyLDYuMDIsMCwwLDAsMi4xNzYsMS41MTZBMTguMTEsMTguMTEsMCwwLDAsMjgsNDJhMTkuMjE0LDE5LjIxNCwwLDAsMCw3LjUwOC0xLjI4M0E2LjAzMyw2LjAzMywwLDAsMCwzNy42ODQsMzkuMmEzLjE1MiwzLjE1MiwwLDAsMCwuODE2LTIuMDQyVjE4Ljg0MkEzLjAzOCwzLjAzOCwwLDAsMCwzNy42ODQsMTYuOFptLS45MjUsMjAuMzU4YzAsLjctLjgxNiwxLjQtMi4yMzEsMS45MjVBMTguNzcsMTguNzcsMCwwLDEsMjgsNDAuMDc1YTE4Ljc3LDE4Ljc3LDAsMCwxLTYuNTI4LS45OTJDMjAuMTExLDM4LjU1OCwxOS4zLDM3LjgsMTkuMywzNy4xNThWMzMuOTVhMTAsMTAsMCwwLDAsMy4yMSwxLjQsMjIuMDkzLDIyLjA5MywwLDAsMCw1LjUuNjQyLDIyLjg3LDIyLjg3LDAsMCwwLDUuNTQ5LS42NDIsOS44MTksOS44MTksMCwwLDAsMy4yNjQtMS40djMuMjA4Wm0wLTYuMTI1YzAsLjctLjgxNiwxLjQtMi4yMzEsMS45MjVBMTguNzcsMTguNzcsMCwwLDEsMjgsMzMuOTVhMTguNzcsMTguNzcsMCwwLDEtNi41MjgtLjk5MmMtMS4zNjEtLjUyNS0yLjE3Ny0xLjI4My0yLjE3Ny0xLjkyNXYtMy4xNWE5Ljk4Miw5Ljk4MiwwLDAsMCwzLjIxLDEuMzQyLDIyLjI2MywyMi4yNjMsMCwwLDAsNS41LjU4M2MzLjgwOCwwLDYuOTY0LS43LDguNzU5LTEuOTgzWk0zNC41MjgsMjAuODI1QTE4Ljc3LDE4Ljc3LDAsMCwxLDI4LDIxLjgxN2ExOC43NywxOC43NywwLDAsMS02LjUyOC0uOTkyYy0xLjM2MS0uNTgzLTIuMTc3LTEuMjgzLTIuMTc3LTEuOTgzLDAtMS4yMjUsMy4wNDctMi45MTcsOC43LTIuOTE3LDUuNzEyLDAsOC43NTksMS42OTIsOC43NTksMi45MTdDMzYuNzU5LDE5LjU0MiwzNS45NDMsMjAuMjQyLDM0LjUyOCwyMC44MjVaIi8+PHBhdGggY2xhc3M9ImNscy0zIiBkPSJNMzYuNzMyLDE4Ljg0MmMwLC43LS44MTYsMS40LTIuMjMxLDEuOTgzYTE4Ljc3LDE4Ljc3LDAsMCwxLTYuNTI4Ljk5MiwxOC43NzYsMTguNzc2LDAsMCwxLTYuNTI5LS45OTJjLTEuMzYtLjU4My0yLjE3Ni0xLjI4My0yLjE3Ni0xLjk4M3Y5LjA0MWE5Ljk4Miw5Ljk4MiwwLDAsMCwzLjIxLDEuMzQyLDIyLjI1NywyMi4yNTcsMCwwLDAsNS40OTUuNTgzYzMuODA4LDAsNi45NjQtLjcsOC43NTktMS45ODNaIi8+PC9zdmc+;strokeColor=#1950d2;strokeWidth=2;" vertex="1" parent="1">
          <mxGeometry x="110" y="461" width="48" height="48" as="geometry" />
        </mxCell>
        <mxCell id="XWycmueIXHpv-xGtSctl-19" value="HANA DB on BTP" style="shape=image;verticalLabelPosition=bottom;verticalAlign=top;imageAspect=0;aspect=fixed;image=data:image/svg+xml,PHN2ZyB4bWxucz0iaHR0cDovL3d3dy53My5vcmcvMjAwMC9zdmciIGlkPSJoYW5hIiB2aWV3Qm94PSI0LjAwMDAwMTkwNzM0ODYzMyAzLjk5OTk5OTA0NjMyNTY4MzYgNDggNDcuOTk5OTk2MTg1MzAyNzM0IiB3aWR0aD0iNDgiIGhlaWdodD0iNDcuOTk5OTk2MTg1MzAyNzM0Ij48ZGVmcz48c3R5bGU+LmNscy0xe2ZpbGw6IzBhNmVkMTt9LmNscy0ye2ZpbGw6IzA1M2I3MDt9LmNscy0ze2ZpbGw6IzA3NGQ5Mjt9PC9zdHlsZT48L2RlZnM+PHRpdGxlPmhhbmFfY2lyY2xlPC90aXRsZT48cGF0aCBjbGFzcz0iY2xzLTEiIGQ9Ik00MC40MTcsMjQuNjk0YTQuMjI2LDQuMjI2LDAsMCwwLTEuNTI0LTEuMDYyLDEzLjA3NCwxMy4wNzQsMCwwLDAtNS4xNDQtLjg4MiwxMy4wNywxMy4wNywwLDAsMC01LjE0NC44ODIsNC4yMDksNC4yMDksMCwwLDAtMS41MjQsMS4wNjIsMi4yLDIuMiwwLDAsMC0uNTgzLDEuNDdWMzguNTQ3YTIuMTIzLDIuMTIzLDAsMCwwLC41ODMsMS40NjdBNC4xMzgsNC4xMzgsMCwwLDAsMjguNiw0MS4wNzYsMTIuMzQ1LDEyLjM0NSwwLDAsMCwzMy43NDksNDJhMTMuMDc0LDEzLjA3NCwwLDAsMCw1LjE0NC0uODgyLDQuMjI2LDQuMjI2LDAsMCwwLDEuNTI0LTEuMDYyQTIuMjg5LDIuMjg5LDAsMCwwLDQxLDM4LjU4NlYyNi4xNjRBMi4yLDIuMiwwLDAsMCw0MC40MTcsMjQuNjk0Wk0zNS4zOCw0MC4zNTJjLS41MjIuMDQ5LTEuMDYxLjA4My0xLjYzMS4wODNhMTYuNzg3LDE2Ljc4NywwLDAsMS0xLjk4Ny0uMTIyVjI5LjVhMTkuMjI4LDE5LjIyOCwwLDAsMCwxLjk4Ny4xYy41NzEsMCwxLjExMS0uMDMsMS42MzEtLjA3NFptNC4xOC0xLjc2NmMwLC40MDgtLjUzNC44NTEtMS40MzEsMS4xODdhOC40NDIsOC40NDIsMCwwLDEtMS4zLjM2M1YyOS4zMjNhNy45NDcsNy45NDcsMCwwLDAsMi43MzEtLjk1OVpNMzguMTI5LDI3LjQwOGExMi41ODMsMTIuNTgzLDAsMCwxLTQuMzguNjYzLDEyLjU0OCwxMi41NDgsMCwwLDEtNC4zNzctLjY2M2MtLjg4OC0uMzc5LTEuNC0uODI2LTEuNC0xLjIyNnYtLjAxOGMwLS43NTUsMi4wNTYtMS44NSw1Ljc3NC0xLjg1LDMuNzQzLDAsNS44MTEsMS4wOTUsNS44MTEsMS44N0MzOS41NiwyNi41ODcsMzkuMDM4LDI3LjAzNCwzOC4xMjksMjcuNDA4WiIvPjxwYXRoIGNsYXNzPSJjbHMtMiIgZD0iTTI0Ljg0LDI3Ljk5MkgxNy45MDZhMy4xNDMsMy4xNDMsMCwwLDEtLjk3Ny02LjEzNGwxLjM0Ni0uNDQzLS4xNTMtMS40MDhBNC43MzMsNC43MzMsMCwwLDEsMTksMTYuOTI0YTMuOCwzLjgsMCwwLDEsMi44MTktMS4xNzNBMy41MzQsMy41MzQsMCwwLDEsMjUuMjM1LDE4LjFMMjYsMjAuMDIzbDEuNzY3LTEuMDY2YTIuMjg3LDIuMjg3LDAsMCwxLDEuMTkyLS4zNDUsMi4zMjYsMi4zMjYsMCwwLDEsMi4yODMsMS45bC4wOTMuNDkzaDEuNzQ5Yy0uMDI3LS4yNTYtLjA2My0uNTI4LS4xMjItLjgxN2E0LjA0OSw0LjA0OSwwLDAsMC02LjEtMi43MjVBNS41MTQsNS41MTQsMCwwLDAsMjEuNzgyLDE0Yy01Ljk0NS4xNDEtNS40LDYuMi01LjQsNi4yYTQuODkzLDQuODkzLDAsMCwwLDEuNTI0LDkuNTQ3SDI0Ljg0WiIvPjxwYXRoIGNsYXNzPSJjbHMtMyIgZD0iTTI4LDZBMjIsMjIsMCwxLDEsNiwyOCwyMi4wMjUsMjIuMDI1LDAsMCwxLDI4LDZtMC0yQTI0LDI0LDAsMSwwLDUyLDI4LDI0LDI0LDAsMCwwLDI4LDRaIi8+PC9zdmc+;strokeColor=#1950d2;strokeWidth=2;" vertex="1" parent="1">
          <mxGeometry x="740" y="355" width="48" height="48" as="geometry" />
        </mxCell>
        <mxCell id="XWycmueIXHpv-xGtSctl-20" value="My Inbox on D40 ?" style="shape=image;verticalLabelPosition=bottom;verticalAlign=top;imageAspect=0;aspect=fixed;image=data:image/svg+xml,PHN2ZyB4bWxucz0iaHR0cDovL3d3dy53My5vcmcvMjAwMC9zdmciIGlkPSJzZXJ2aWNlLXRpY2tldC1pbnRlbGxpZ2VuY2UiIHZpZXdCb3g9IjQuMDAwMDAxOTA3MzQ4NjMzIDMuOTk5OTk5MDQ2MzI1NjgzNiA0OCA0Ny45OTk5OTYxODUzMDI3MzQiIHdpZHRoPSI0OCIgaGVpZ2h0PSI0Ny45OTk5OTYxODUzMDI3MzQiPjxkZWZzPjxzdHlsZT4uY2xzLTF7ZmlsbDojMDc0ZDkyO30uY2xzLTJ7ZmlsbDojMDUzYjcwO30uY2xzLTN7ZmlsbDojMGE2ZWQxO308L3N0eWxlPjwvZGVmcz48dGl0bGU+c2VydmljZS10aWNrZXQtaW50ZWxsaWdlbmNlX2NpcmNsZTwvdGl0bGU+PHBhdGggY2xhc3M9ImNscy0xIiBkPSJNMjgsNkEyMiwyMiwwLDEsMSw2LDI4LDIyLjAyNSwyMi4wMjUsMCwwLDEsMjgsNm0wLTJBMjQsMjQsMCwxLDAsNTIsMjgsMjQsMjQsMCwwLDAsMjgsNFoiLz48cGF0aCBjbGFzcz0iY2xzLTIiIGQ9Ik0xNi44NzksMjYuNzUyYS44MTMuODEzLDAsMCwwLS44MTMtLjgxM0gxMi44MTNhLjgxMy44MTMsMCwxLDAsMCwxLjYyNmgzLjI1M0EuODEzLjgxMywwLDAsMCwxNi44NzksMjYuNzUyWiIvPjxwYXRoIGNsYXNzPSJjbHMtMiIgZD0iTTE3LjY5MiwyMi42OTJIMTQuNDRhLjgxNC44MTQsMCwxLDAsMCwxLjYyN2gzLjI1MmEuODE0LjgxNCwwLDAsMCwwLTEuNjI3WiIvPjxwYXRoIGNsYXNzPSJjbHMtMiIgZD0iTTE3LjY5MiwyOS4xODhIMTYuMDM4YS44MTQuODE0LDAsMCwwLDAsMS42MjdoMS42NTRhLjgxNC44MTQsMCwwLDAsMC0xLjYyN1oiLz48cG9seWdvbiBjbGFzcz0iY2xzLTIiIHBvaW50cz0iMzEuMTM2IDM2LjE3NSAyOS44MSAzNC42NjYgMjguODk1IDM1LjU4MSAzMS4xMzYgMzguMDUgMzUuMzg4IDMzLjExMSAzNC40NzQgMzIuMTk3IDMxLjEzNiAzNi4xNzUiLz48cGF0aCBjbGFzcz0iY2xzLTIiIGQ9Ik0zMi4zMTksMjkuMTg4QTUuNjgyLDUuNjgyLDAsMSwwLDM4LDM0Ljg3LDUuNjgyLDUuNjgyLDAsMCwwLDMyLjMxOSwyOS4xODhabTAsMTAuMTQ2YTQuNDY0LDQuNDY0LDAsMSwxLDQuNDY0LTQuNDY0QTQuNDY5LDQuNDY5LDAsMCwxLDMyLjMxOSwzOS4zMzRaIi8+PHBhdGggY2xhc3M9ImNscy0zIiBkPSJNMzYuMzc5LDE5LjQ0OUgyMS43NjVhMS42MjEsMS42MjEsMCwwLDAtMS42MjEsMS42MjF2OS43NDZhMS42MiwxLjYyLDAsMCwwLDEuNjIxLDEuNjJoMy43MjZhNy4zMjQsNy4zMjQsMCwwLDEsLjc4Ny0xLjYyMUgyMi44NjVsMy4wNjEtMi4wNGEuNjA5LjYwOSwwLDEsMC0uNjc2LTEuMDEybC0zLjQ4MiwyLjMyMywwLTguMDM4LDYuMTQxLDQuMDk0YTIuMSwyLjEsMCwwLDAsMi4zMywwbDYuMTQtNC4wOTQsMCw2Ljc0M0E3LjMyMSw3LjMyMSwwLDAsMSwzOCwzMC4zVjIxLjA3QTEuNjIxLDEuNjIxLDAsMCwwLDM2LjM3OSwxOS40NDlabS03LjA0Miw1LjM0MmEuNDcyLjQ3MiwwLDAsMS0uNTI5LDBsLTUuNTgtMy43MTlIMzQuOTE0WiIvPjwvc3ZnPg==;strokeColor=#1950d2;strokeWidth=2;" vertex="1" parent="1">
          <mxGeometry x="326" y="307" width="48" height="48" as="geometry" />
        </mxCell>
        <mxCell id="XWycmueIXHpv-xGtSctl-21" value="" style="endArrow=classic;html=1;rounded=0;exitX=0;exitY=0.5;exitDx=0;exitDy=0;" edge="1" parent="1" source="XWycmueIXHpv-xGtSctl-14">
          <mxGeometry width="50" height="50" relative="1" as="geometry">
            <mxPoint x="400" y="500" as="sourcePoint" />
            <mxPoint x="410" y="584" as="targetPoint" />
          </mxGeometry>
        </mxCell>
        <mxCell id="XWycmueIXHpv-xGtSctl-22" value="" style="endArrow=classic;html=1;rounded=0;exitX=1;exitY=0.5;exitDx=0;exitDy=0;entryX=0.5;entryY=0;entryDx=0;entryDy=0;" edge="1" parent="1" source="XWycmueIXHpv-xGtSctl-7" target="XWycmueIXHpv-xGtSctl-11">
          <mxGeometry relative="1" as="geometry">
            <mxPoint x="370" y="480" as="sourcePoint" />
            <mxPoint x="470" y="480" as="targetPoint" />
            <Array as="points">
              <mxPoint x="640" y="415" />
            </Array>
          </mxGeometry>
        </mxCell>
        <mxCell id="XWycmueIXHpv-xGtSctl-23" value="Read data from S4" style="edgeLabel;resizable=0;html=1;align=center;verticalAlign=middle;strokeColor=#1950d2;strokeWidth=2;" connectable="0" vertex="1" parent="XWycmueIXHpv-xGtSctl-22">
          <mxGeometry relative="1" as="geometry" />
        </mxCell>
        <mxCell id="XWycmueIXHpv-xGtSctl-24" value="" style="endArrow=classic;html=1;rounded=0;entryX=1;entryY=0.5;entryDx=0;entryDy=0;exitX=0.5;exitY=1;exitDx=0;exitDy=0;" edge="1" parent="1" source="XWycmueIXHpv-xGtSctl-11" target="XWycmueIXHpv-xGtSctl-4">
          <mxGeometry relative="1" as="geometry">
            <mxPoint x="366" y="490" as="sourcePoint" />
            <mxPoint x="636" y="525" as="targetPoint" />
            <Array as="points">
              <mxPoint x="640" y="545" />
            </Array>
          </mxGeometry>
        </mxCell>
        <mxCell id="XWycmueIXHpv-xGtSctl-25" value="Update / Post to S4" style="edgeLabel;resizable=0;html=1;align=center;verticalAlign=middle;strokeColor=#1950d2;strokeWidth=2;" connectable="0" vertex="1" parent="XWycmueIXHpv-xGtSctl-24">
          <mxGeometry relative="1" as="geometry" />
        </mxCell>
        <mxCell id="XWycmueIXHpv-xGtSctl-26" value="" style="endArrow=classic;html=1;rounded=0;entryX=0;entryY=0.5;entryDx=0;entryDy=0;exitX=0.883;exitY=0.017;exitDx=0;exitDy=0;exitPerimeter=0;" edge="1" parent="1" source="XWycmueIXHpv-xGtSctl-11" target="XWycmueIXHpv-xGtSctl-19">
          <mxGeometry width="50" height="50" relative="1" as="geometry">
            <mxPoint x="710" y="455" as="sourcePoint" />
            <mxPoint x="760" y="405" as="targetPoint" />
            <Array as="points">
              <mxPoint x="686" y="380" />
            </Array>
          </mxGeometry>
        </mxCell>
        <mxCell id="XWycmueIXHpv-xGtSctl-27" value="" style="endArrow=classic;html=1;rounded=0;entryX=1;entryY=0.5;entryDx=0;entryDy=0;exitX=0.5;exitY=1;exitDx=0;exitDy=0;" edge="1" parent="1" source="XWycmueIXHpv-xGtSctl-19" target="XWycmueIXHpv-xGtSctl-11">
          <mxGeometry width="50" height="50" relative="1" as="geometry">
            <mxPoint x="740" y="480" as="sourcePoint" />
            <mxPoint x="790" y="430" as="targetPoint" />
            <Array as="points">
              <mxPoint x="764" y="485" />
            </Array>
          </mxGeometry>
        </mxCell>
        <mxCell id="XWycmueIXHpv-xGtSctl-28" value="" style="endArrow=classic;html=1;rounded=0;entryX=1;entryY=0.5;entryDx=0;entryDy=0;" edge="1" parent="1" target="XWycmueIXHpv-xGtSctl-13">
          <mxGeometry relative="1" as="geometry">
            <mxPoint x="660" y="450" as="sourcePoint" />
            <mxPoint x="470" y="480" as="targetPoint" />
            <Array as="points">
              <mxPoint x="660" y="331" />
            </Array>
          </mxGeometry>
        </mxCell>
        <mxCell id="XWycmueIXHpv-xGtSctl-29" value="CN Create-trigger WF" style="edgeLabel;resizable=0;html=1;align=center;verticalAlign=middle;strokeColor=#1950d2;strokeWidth=2;" connectable="0" vertex="1" parent="XWycmueIXHpv-xGtSctl-28">
          <mxGeometry relative="1" as="geometry" />
        </mxCell>
        <mxCell id="XWycmueIXHpv-xGtSctl-30" value="" style="endArrow=classic;html=1;rounded=0;fontSize=18;fontColor=#2846bd;entryX=1;entryY=0.3333333333333333;entryDx=0;entryDy=0;entryPerimeter=0;exitX=0.5;exitY=0;exitDx=0;exitDy=0;" edge="1" parent="1" source="XWycmueIXHpv-xGtSctl-13" target="XWycmueIXHpv-xGtSctl-9">
          <mxGeometry relative="1" as="geometry">
            <mxPoint x="370" y="500" as="sourcePoint" />
            <mxPoint x="470" y="500" as="targetPoint" />
            <Array as="points">
              <mxPoint x="564" y="180" />
            </Array>
          </mxGeometry>
        </mxCell>
        <mxCell id="XWycmueIXHpv-xGtSctl-31" value="" style="shape=message;html=1;outlineConnect=0;labelBorderColor=#FFFFFF;strokeColor=#1950d2;strokeWidth=2;fontSize=18;fontColor=#2846bd;" vertex="1" parent="XWycmueIXHpv-xGtSctl-30">
          <mxGeometry width="20" height="14" relative="1" as="geometry">
            <mxPoint x="-10" y="-7" as="offset" />
          </mxGeometry>
        </mxCell>
        <mxCell id="XWycmueIXHpv-xGtSctl-32" value="" style="endArrow=classic;html=1;rounded=0;fontSize=18;fontColor=#2846bd;exitX=0;exitY=0.5;exitDx=0;exitDy=0;entryX=1;entryY=0.5;entryDx=0;entryDy=0;" edge="1" parent="1" source="XWycmueIXHpv-xGtSctl-13" target="XWycmueIXHpv-xGtSctl-20">
          <mxGeometry relative="1" as="geometry">
            <mxPoint x="370" y="330" as="sourcePoint" />
            <mxPoint x="470" y="330" as="targetPoint" />
          </mxGeometry>
        </mxCell>
        <mxCell id="XWycmueIXHpv-xGtSctl-33" value="&lt;font style=&quot;font-size: 12px;&quot;&gt;WI goes to My Inbox&lt;/font&gt;" style="edgeLabel;resizable=0;html=1;align=center;verticalAlign=middle;labelBorderColor=#FFFFFF;strokeColor=#1950d2;strokeWidth=2;fontSize=18;fontColor=#2846bd;" connectable="0" vertex="1" parent="XWycmueIXHpv-xGtSctl-32">
          <mxGeometry relative="1" as="geometry" />
        </mxCell>
        <mxCell id="XWycmueIXHpv-xGtSctl-39" value="" style="endArrow=classic;html=1;rounded=0;fontSize=11;fontColor=#2846bd;entryX=0.5;entryY=0;entryDx=0;entryDy=0;exitX=1;exitY=0;exitDx=0;exitDy=0;" edge="1" parent="1" source="XWycmueIXHpv-xGtSctl-13" target="XWycmueIXHpv-xGtSctl-19">
          <mxGeometry relative="1" as="geometry">
            <mxPoint x="580" y="300" as="sourcePoint" />
            <mxPoint x="770" y="310" as="targetPoint" />
            <Array as="points">
              <mxPoint x="764" y="307" />
            </Array>
          </mxGeometry>
        </mxCell>
        <mxCell id="XWycmueIXHpv-xGtSctl-40" value="&lt;font style=&quot;font-size: 12px;&quot;&gt;Update Approval status&lt;/font&gt;" style="edgeLabel;resizable=0;html=1;align=center;verticalAlign=middle;labelBorderColor=#FFFFFF;strokeColor=#1950d2;strokeWidth=2;fontSize=11;fontColor=#2846bd;" connectable="0" vertex="1" parent="XWycmueIXHpv-xGtSctl-39">
          <mxGeometry relative="1" as="geometry" />
        </mxCell>
        <mxCell id="XWycmueIXHpv-xGtSctl-41" value="" style="endArrow=classic;html=1;rounded=0;fontSize=12;entryX=0.5;entryY=0;entryDx=0;entryDy=0;exitX=0.5;exitY=0.5;exitDx=0;exitDy=0;exitPerimeter=0;" edge="1" parent="1" source="XWycmueIXHpv-xGtSctl-9" target="XWycmueIXHpv-xGtSctl-10">
          <mxGeometry width="50" height="50" relative="1" as="geometry">
            <mxPoint x="370" y="400" as="sourcePoint" />
            <mxPoint x="420" y="350" as="targetPoint" />
            <Array as="points">
              <mxPoint x="256" y="190" />
            </Array>
          </mxGeometry>
        </mxCell>
        <mxCell id="XWycmueIXHpv-xGtSctl-42" value="&lt;font style=&quot;font-size: 11px;&quot;&gt;*CN = Change Notification&lt;br&gt;*AA = Asset Accountant&amp;nbsp; &amp;nbsp;&lt;br&gt;&lt;/font&gt;" style="rounded=0;whiteSpace=wrap;html=1;fontSize=12;" vertex="1" parent="1">
          <mxGeometry x="650" y="700" width="140" height="40" as="geometry" />
        </mxCell>
        <mxCell id="XWycmueIXHpv-xGtSctl-45" value="AA-Asset Accountant" style="shape=umlActor;verticalLabelPosition=bottom;verticalAlign=top;html=1;outlineConnect=0;labelBackgroundColor=default;labelBorderColor=#F5F5F5;fontSize=10;fontColor=default;" vertex="1" parent="1">
          <mxGeometry x="110" y="120" width="30" height="60" as="geometry" />
        </mxCell>
        <mxCell id="XWycmueIXHpv-xGtSctl-46" value="" style="endArrow=classic;html=1;rounded=0;entryX=0;entryY=0.75;entryDx=0;entryDy=0;exitX=0.333;exitY=1.167;exitDx=0;exitDy=0;exitPerimeter=0;" edge="1" parent="1" source="XWycmueIXHpv-xGtSctl-45" target="XWycmueIXHpv-xGtSctl-10">
          <mxGeometry width="50" height="50" relative="1" as="geometry">
            <mxPoint x="120" y="260" as="sourcePoint" />
            <mxPoint x="440" y="360" as="targetPoint" />
            <Array as="points">
              <mxPoint x="120" y="345" />
            </Array>
          </mxGeometry>
        </mxCell>
        <mxCell id="XWycmueIXHpv-xGtSctl-47" value="Initiator" style="shape=umlActor;verticalLabelPosition=bottom;verticalAlign=top;html=1;outlineConnect=0;labelBackgroundColor=default;labelBorderColor=#F5F5F5;fontSize=10;fontColor=default;" vertex="1" parent="1">
          <mxGeometry x="180" y="180" width="30" height="60" as="geometry" />
        </mxCell>
        <mxCell id="XWycmueIXHpv-xGtSctl-49" value="" style="endArrow=classic;html=1;rounded=0;entryX=0;entryY=0.25;entryDx=0;entryDy=0;" edge="1" parent="1" target="XWycmueIXHpv-xGtSctl-10">
          <mxGeometry width="50" height="50" relative="1" as="geometry">
            <mxPoint x="190" y="260" as="sourcePoint" />
            <mxPoint x="440" y="300" as="targetPoint" />
            <Array as="points">
              <mxPoint x="190" y="324" />
            </Array>
          </mxGeometry>
        </mxCell>
        <mxCell id="XWycmueIXHpv-xGtSctl-50" value="" style="endArrow=classic;html=1;rounded=0;fontSize=18;fontColor=#2846bd;" edge="1" parent="1">
          <mxGeometry relative="1" as="geometry">
            <mxPoint x="580" y="300" as="sourcePoint" />
            <mxPoint x="130" y="140" as="targetPoint" />
            <Array as="points">
              <mxPoint x="580" y="140" />
            </Array>
          </mxGeometry>
        </mxCell>
        <mxCell id="XWycmueIXHpv-xGtSctl-51" value="" style="shape=message;html=1;outlineConnect=0;labelBorderColor=#FFFFFF;strokeColor=#1950d2;strokeWidth=2;fontSize=18;fontColor=#2846bd;" vertex="1" parent="XWycmueIXHpv-xGtSctl-50">
          <mxGeometry width="20" height="14" relative="1" as="geometry">
            <mxPoint x="-10" y="-7" as="offset" />
          </mxGeometry>
        </mxCell>
        <mxCell id="XWycmueIXHpv-xGtSctl-52" value="&lt;font style=&quot;font-size: 10px;&quot;&gt;Notify AA on Approval to Post to FI&lt;/font&gt;" style="rounded=0;whiteSpace=wrap;html=1;fontSize=12;strokeColor=none;fillColor=default;" vertex="1" parent="1">
          <mxGeometry x="190" y="120" width="184" height="10" as="geometry" />
        </mxCell>
      </root>
    </mxGraphModel>
  </diagram>
</mxfile>
